<mxfile host="app.diagrams.net" modified="2023-06-07T00:47:46.214Z" agent="Mozilla/5.0 (Windows NT 10.0; Win64; x64) AppleWebKit/537.36 (KHTML, like Gecko) Chrome/114.0.0.0 Safari/537.36" etag="gLIH31d8xlM82XBHgHhX" version="21.3.7" type="device">
  <diagram name="페이지-1" id="_eJ2j1-yKTiZe_nJDsUn">
    <mxGraphModel dx="1434" dy="756" grid="1" gridSize="10" guides="1" tooltips="1" connect="1" arrows="1" fold="1" page="1" pageScale="1" pageWidth="4681" pageHeight="3300" math="0" shadow="0">
      <root>
        <mxCell id="0" />
        <mxCell id="1" parent="0" />
        <mxCell id="T0cdDId6vHMG0BL15HF7-6" style="edgeStyle=orthogonalEdgeStyle;rounded=0;orthogonalLoop=1;jettySize=auto;html=1;entryX=0;entryY=0.5;entryDx=0;entryDy=0;" edge="1" parent="1" source="T0cdDId6vHMG0BL15HF7-1" target="T0cdDId6vHMG0BL15HF7-2">
          <mxGeometry relative="1" as="geometry" />
        </mxCell>
        <mxCell id="T0cdDId6vHMG0BL15HF7-1" value="관리자" style="shape=umlActor;verticalLabelPosition=bottom;verticalAlign=top;html=1;outlineConnect=0;" vertex="1" parent="1">
          <mxGeometry x="160" y="120" width="80" height="120" as="geometry" />
        </mxCell>
        <mxCell id="T0cdDId6vHMG0BL15HF7-7" style="edgeStyle=orthogonalEdgeStyle;rounded=0;orthogonalLoop=1;jettySize=auto;html=1;entryX=0;entryY=0.5;entryDx=0;entryDy=0;" edge="1" parent="1" source="T0cdDId6vHMG0BL15HF7-2" target="T0cdDId6vHMG0BL15HF7-3">
          <mxGeometry relative="1" as="geometry" />
        </mxCell>
        <mxCell id="T0cdDId6vHMG0BL15HF7-8" style="edgeStyle=orthogonalEdgeStyle;rounded=0;orthogonalLoop=1;jettySize=auto;html=1;entryX=0;entryY=0.5;entryDx=0;entryDy=0;" edge="1" parent="1" source="T0cdDId6vHMG0BL15HF7-2" target="T0cdDId6vHMG0BL15HF7-4">
          <mxGeometry relative="1" as="geometry" />
        </mxCell>
        <mxCell id="T0cdDId6vHMG0BL15HF7-9" style="edgeStyle=orthogonalEdgeStyle;rounded=0;orthogonalLoop=1;jettySize=auto;html=1;entryX=0;entryY=0.5;entryDx=0;entryDy=0;" edge="1" parent="1" source="T0cdDId6vHMG0BL15HF7-2" target="T0cdDId6vHMG0BL15HF7-5">
          <mxGeometry relative="1" as="geometry" />
        </mxCell>
        <mxCell id="T0cdDId6vHMG0BL15HF7-2" value="거래처 리스트 보기" style="ellipse;whiteSpace=wrap;html=1;" vertex="1" parent="1">
          <mxGeometry x="320" y="140" width="120" height="80" as="geometry" />
        </mxCell>
        <mxCell id="T0cdDId6vHMG0BL15HF7-11" style="edgeStyle=orthogonalEdgeStyle;rounded=0;orthogonalLoop=1;jettySize=auto;html=1;entryX=0;entryY=0.5;entryDx=0;entryDy=0;entryPerimeter=0;" edge="1" parent="1" source="T0cdDId6vHMG0BL15HF7-3" target="T0cdDId6vHMG0BL15HF7-10">
          <mxGeometry relative="1" as="geometry" />
        </mxCell>
        <mxCell id="T0cdDId6vHMG0BL15HF7-3" value="거래처 추가" style="ellipse;whiteSpace=wrap;html=1;" vertex="1" parent="1">
          <mxGeometry x="520" y="80" width="120" height="80" as="geometry" />
        </mxCell>
        <mxCell id="T0cdDId6vHMG0BL15HF7-12" style="edgeStyle=orthogonalEdgeStyle;rounded=0;orthogonalLoop=1;jettySize=auto;html=1;" edge="1" parent="1" source="T0cdDId6vHMG0BL15HF7-4">
          <mxGeometry relative="1" as="geometry">
            <mxPoint x="760" y="180" as="targetPoint" />
          </mxGeometry>
        </mxCell>
        <mxCell id="T0cdDId6vHMG0BL15HF7-4" value="거래처 상세보기" style="ellipse;whiteSpace=wrap;html=1;" vertex="1" parent="1">
          <mxGeometry x="520" y="180" width="120" height="80" as="geometry" />
        </mxCell>
        <mxCell id="T0cdDId6vHMG0BL15HF7-13" style="edgeStyle=orthogonalEdgeStyle;rounded=0;orthogonalLoop=1;jettySize=auto;html=1;entryX=0;entryY=0.5;entryDx=0;entryDy=0;entryPerimeter=0;" edge="1" parent="1" source="T0cdDId6vHMG0BL15HF7-5" target="T0cdDId6vHMG0BL15HF7-10">
          <mxGeometry relative="1" as="geometry" />
        </mxCell>
        <mxCell id="T0cdDId6vHMG0BL15HF7-5" value="거래처 수정" style="ellipse;whiteSpace=wrap;html=1;" vertex="1" parent="1">
          <mxGeometry x="520" y="280" width="120" height="80" as="geometry" />
        </mxCell>
        <mxCell id="T0cdDId6vHMG0BL15HF7-10" value="거래처 정보 Table" style="shape=cylinder3;whiteSpace=wrap;html=1;boundedLbl=1;backgroundOutline=1;size=15;" vertex="1" parent="1">
          <mxGeometry x="760" y="120" width="120" height="120" as="geometry" />
        </mxCell>
      </root>
    </mxGraphModel>
  </diagram>
</mxfile>
